<svg width="32" height="164" viewBox="0 0 32 164" fill="none" xmlns="http://www.w3.org/2000/svg">
<g id="Group 1023">
<path id="Vector" fill-rule="evenodd" clip-rule="evenodd" d="M0 16.0893C0 24.044 5.77733 30.6587 13.3333 32V20.444H9.33333V16H13.3333V12.444C13.3333 8.444 15.9107 6.22267 19.556 6.22267C20.7107 6.22267 21.956 6.4 23.1107 6.57733V10.6667H21.0667C19.1107 10.6667 18.6667 11.644 18.6667 12.8893V16H22.9333L22.2227 20.444H18.6667V32C26.2227 30.6587 32 24.0453 32 16.0893C32 7.24 24.8 0 16 0C7.2 0 0 7.24 0 16.0893Z" fill="#002AFF"/>
<path id="Vector_2" d="M16 44C7.16429 44 0 51.1643 0 60C0 68.8357 7.16429 76 16 76C24.8357 76 32 68.8357 32 60C32 51.1643 24.8357 44 16 44ZM23.6893 56.0607C23.7 56.2286 23.7 56.4036 23.7 56.575C23.7 61.8179 19.7071 67.8571 12.4107 67.8571C10.1607 67.8571 8.075 67.2036 6.31786 66.0786C6.63929 66.1143 6.94643 66.1286 7.275 66.1286C9.13214 66.1286 10.8393 65.5 12.2 64.4357C10.4571 64.4 8.99286 63.2571 8.49286 61.6857C9.10357 61.775 9.65357 61.775 10.2821 61.6143C9.38474 61.432 8.57812 60.9446 7.99934 60.2349C7.42056 59.5253 7.10531 58.6372 7.10714 57.7214V57.6714C7.63214 57.9679 8.25 58.15 8.89643 58.175C8.35301 57.8128 7.90735 57.3222 7.59897 56.7465C7.29059 56.1709 7.12901 55.528 7.12857 54.875C7.12857 54.1357 7.32143 53.4607 7.66786 52.875C8.66394 54.1012 9.9069 55.1041 11.3159 55.8184C12.725 56.5328 14.2686 56.9427 15.8464 57.0214C15.2857 54.325 17.3 52.1429 19.7214 52.1429C20.8643 52.1429 21.8929 52.6214 22.6179 53.3929C23.5143 53.225 24.3714 52.8893 25.1357 52.4393C24.8393 53.3571 24.2179 54.1321 23.3929 54.6214C24.1929 54.5357 24.9643 54.3143 25.6786 54.0036C25.1393 54.7964 24.4643 55.5 23.6893 56.0607Z" fill="#002AFF"/>
<path id="Vector_3" d="M15.9957 98.6642C13.0578 98.6642 10.6602 101.062 10.6602 104C10.6602 106.938 13.0578 109.335 15.9957 109.335C18.9336 109.335 21.3312 106.938 21.3312 104C21.3312 101.062 18.9336 98.6642 15.9957 98.6642ZM31.9982 104C31.9982 101.79 32.0182 99.6008 31.8941 97.3954C31.7701 94.8337 31.1857 92.5602 29.3125 90.687C27.4352 88.8097 25.1657 88.2293 22.604 88.1053C20.3946 87.9812 18.2052 88.0012 15.9997 88.0012C13.7902 88.0012 11.6008 87.9812 9.39536 88.1053C6.83368 88.2293 4.56019 88.8137 2.68696 90.687C0.809722 92.5642 0.22934 94.8337 0.105259 97.3954C-0.0188226 99.6048 0.00119056 101.794 0.00119056 104C0.00119056 106.205 -0.0188226 108.399 0.105259 110.604C0.22934 113.166 0.813725 115.439 2.68696 117.312C4.56419 119.19 6.83368 119.77 9.39536 119.894C11.6048 120.018 13.7943 119.998 15.9997 119.998C18.2092 119.998 20.3986 120.018 22.604 119.894C25.1657 119.77 27.4392 119.186 29.3125 117.312C31.1897 115.435 31.7701 113.166 31.8941 110.604C32.0222 108.399 31.9982 106.209 31.9982 104ZM15.9957 112.209C11.4527 112.209 7.78631 108.543 7.78631 104C7.78631 99.4567 11.4527 95.7903 15.9957 95.7903C20.5387 95.7903 24.2051 99.4567 24.2051 104C24.2051 108.543 20.5387 112.209 15.9957 112.209ZM24.5413 97.3713C23.4806 97.3713 22.6241 96.5148 22.6241 95.4541C22.6241 94.3934 23.4806 93.5368 24.5413 93.5368C25.602 93.5368 26.4586 94.3934 26.4586 95.4541C26.4589 95.706 26.4095 95.9554 26.3133 96.1882C26.217 96.4209 26.0758 96.6324 25.8977 96.8105C25.7196 96.9886 25.5082 97.1298 25.2754 97.226C25.0426 97.3223 24.7932 97.3717 24.5413 97.3713Z" fill="#002AFF"/>
<path id="Vector_4" d="M18.6717 147.722L14.9283 145.975C14.6017 145.823 14.3333 145.993 14.3333 146.355V149.645C14.3333 150.007 14.6017 150.177 14.9283 150.025L18.67 148.278C18.9983 148.125 18.9983 147.875 18.6717 147.722ZM16 132C7.16333 132 0 139.163 0 148C0 156.837 7.16333 164 16 164C24.8367 164 32 156.837 32 148C32 139.163 24.8367 132 16 132ZM16 154.5C7.81 154.5 7.66667 153.762 7.66667 148C7.66667 142.238 7.81 141.5 16 141.5C24.19 141.5 24.3333 142.238 24.3333 148C24.3333 153.762 24.19 154.5 16 154.5Z" fill="#002AFF"/>
</g>
</svg>
